<?xml version="1.0" encoding="UTF-8"?>
<svg xmlns="http://www.w3.org/2000/svg" width="240" height="240" viewBox="0 0 240 240" role="img" aria-labelledby="ena-award-10-title ena-award-10-desc">
  <title id="ena-award-10-title">ENA Prompt Architect rank award</title>
  <desc id="ena-award-10-desc">Warm gold ENA medallion for level 10, Prompt Architect. Transparent background.</desc>
  
  <defs>
    <radialGradient id="ena-award-10-face" cx="35%" cy="25%" r="78%">
      <stop offset="0" stop-color="#FBE39A"/>
      <stop offset="0.34" stop-color="#E0A93B"/>
      <stop offset="0.92" stop-color="#B57E1E"/>
    </radialGradient>
    <radialGradient id="ena-award-10-inner" cx="38%" cy="26%" r="82%">
      <stop offset="0" stop-color="#FBE39A" stop-opacity=".92"/>
      <stop offset=".42" stop-color="#E0A93B" stop-opacity=".9"/>
      <stop offset="1" stop-color="#B57E1E" stop-opacity=".96"/>
    </radialGradient>
    <linearGradient id="ena-award-10-rim" x1="48" y1="36" x2="184" y2="202" gradientUnits="userSpaceOnUse">
      <stop offset="0" stop-color="#FBE39A"/>
      <stop offset=".5" stop-color="#E0A93B"/>
      <stop offset="1" stop-color="#B57E1E"/>
    </linearGradient>
    <linearGradient id="ena-award-10-dark" x1="0" y1="0" x2="0" y2="1">
      <stop offset="0" stop-color="#E0A93B"/>
      <stop offset="1" stop-color="#B57E1E"/>
    </linearGradient>
    <linearGradient id="ena-award-10-light" x1="0" y1="0" x2="1" y2="1">
      <stop offset="0" stop-color="#FBE39A"/>
      <stop offset=".55" stop-color="#E0A93B"/>
      <stop offset="1" stop-color="#B57E1E"/>
    </linearGradient>
    <radialGradient id="ena-award-10-glow" cx="50%" cy="48%" r="52%">
      <stop offset="0" stop-color="#FBE39A" stop-opacity=".46"/>
      <stop offset=".55" stop-color="#E0A93B" stop-opacity=".18"/>
      <stop offset="1" stop-color="#E0A93B" stop-opacity="0"/>
    </radialGradient>
  </defs>
  
  
  
  <circle cx="120" cy="104" r="94" fill="url(#ena-award-10-rim)"/>
  <circle cx="120" cy="104" r="84" fill="url(#ena-award-10-face)" stroke="#B57E1E" stroke-width="3"/>
  <circle cx="120" cy="104" r="66" fill="url(#ena-award-10-inner)" opacity=".9"/>
  <circle cx="120" cy="104" r="92" fill="none" stroke="#FBE39A" stroke-width="3.2" opacity=".58"/>
  <circle cx="120" cy="104" r="74" fill="none" stroke="#B57E1E" stroke-width="2" opacity=".45"/>
  <path d="M64 66 C86 34 136 27 169 52" fill="none" stroke="#FBE39A" stroke-width="7" stroke-linecap="round" opacity=".72"/>
  <g aria-hidden="true"><path d="M120 101 L110.65 52.9 L120 23 L129.35 52.9Z" fill="url(#ena-award-10-light)" opacity=".56"/><path d="M120 101 L135.95 54.67 L159 33.45 L152.15 64.02Z" fill="url(#ena-award-10-light)" opacity=".56"/><path d="M120 101 L156.98 68.85 L187.55 62 L166.33 85.05Z" fill="url(#ena-award-10-light)" opacity=".56"/><path d="M120 101 L168.1 91.65 L198 101 L168.1 110.35Z" fill="url(#ena-award-10-light)" opacity=".56"/><path d="M120 101 L166.33 116.95 L187.55 140 L156.98 133.15Z" fill="url(#ena-award-10-light)" opacity=".56"/><path d="M120 101 L152.15 137.98 L159 168.55 L135.95 147.33Z" fill="url(#ena-award-10-light)" opacity=".56"/><path d="M120 101 L129.35 149.1 L120 179 L110.65 149.1Z" fill="url(#ena-award-10-light)" opacity=".56"/><path d="M120 101 L104.05 147.33 L81 168.55 L87.85 137.98Z" fill="url(#ena-award-10-light)" opacity=".56"/><path d="M120 101 L83.02 133.15 L52.45 140 L73.67 116.95Z" fill="url(#ena-award-10-light)" opacity=".56"/><path d="M120 101 L71.9 110.35 L42 101 L71.9 91.65Z" fill="url(#ena-award-10-light)" opacity=".56"/><path d="M120 101 L73.67 85.05 L52.45 62 L83.02 68.85Z" fill="url(#ena-award-10-light)" opacity=".56"/><path d="M120 101 L87.85 64.02 L81 33.45 L104.05 54.67Z" fill="url(#ena-award-10-light)" opacity=".56"/></g>
  
  
  <g aria-hidden="true"><path d="M63.26 50.67 L69.25999999999999 56.67 L63.26 62.67 L57.26 56.67Z" fill="#FBE39A" stroke="#B57E1E" stroke-width="1.2"/><path d="M90.71 29.22 L96.71 35.22 L90.71 41.22 L84.71 35.22Z" fill="#FBE39A" stroke="#B57E1E" stroke-width="1.2"/><path d="M149.29 29.22 L155.29 35.22 L149.29 41.22 L143.29 35.22Z" fill="#FBE39A" stroke="#B57E1E" stroke-width="1.2"/><path d="M176.74 50.67 L182.74 56.67 L176.74 62.67 L170.74 56.67Z" fill="#FBE39A" stroke="#B57E1E" stroke-width="1.2"/></g>
  
  <g aria-label="ENA center spark and orb">
    <circle cx="120" cy="101" r="48" fill="url(#ena-award-10-inner)" stroke="#FBE39A" stroke-width="2.5" opacity=".92"/>
    <path d="M120 58 C128.49 92.51 157 95 163 101
          C128.49 109.49 126 138 120 144
          C111.51 109.49 83 107 77 101
          C111.51 92.51 114 64 120 58Z" fill="#FBE39A" stroke="#B57E1E" stroke-width="1.4"/>
    <path d="M85 88 C100 72 134 70 151 88" fill="none" stroke="#FBE39A" stroke-width="4" stroke-linecap="round" opacity=".6"/>
  </g>
  
  
  <g aria-label="Level 10">
    <path d="M82 181 C93 174 147 174 158 181 L164 205 C150 215 90 215 76 205Z" fill="url(#ena-award-10-dark)" stroke="#B57E1E" stroke-width="2.5"/>
    <path d="M89 184 C103 180 137 180 151 184" fill="none" stroke="#FBE39A" stroke-width="3" stroke-linecap="round" opacity=".7"/>
    <text x="120" y="202" text-anchor="middle" font-family="Sora, Avenir Next, Helvetica, Arial, sans-serif" font-size="18" font-weight="800" fill="#FBE39A" stroke="#B57E1E" stroke-width=".6" paint-order="stroke">10</text>
  </g>
</svg>
