<?xml version="1.0" encoding="UTF-8"?>
<svg xmlns="http://www.w3.org/2000/svg" width="240" height="240" viewBox="0 0 240 240" role="img" aria-labelledby="ena-award-7-title ena-award-7-desc">
  <title id="ena-award-7-title">ENA Prompt Sage rank award</title>
  <desc id="ena-award-7-desc">Warm gold ENA medallion for level 7, Prompt Sage. Transparent background.</desc>
  
  <defs>
    <radialGradient id="ena-award-7-face" cx="35%" cy="25%" r="78%">
      <stop offset="0" stop-color="#FBE39A"/>
      <stop offset="0.34" stop-color="#E0A93B"/>
      <stop offset="0.92" stop-color="#B57E1E"/>
    </radialGradient>
    <radialGradient id="ena-award-7-inner" cx="38%" cy="26%" r="82%">
      <stop offset="0" stop-color="#FBE39A" stop-opacity=".92"/>
      <stop offset=".42" stop-color="#E0A93B" stop-opacity=".9"/>
      <stop offset="1" stop-color="#B57E1E" stop-opacity=".96"/>
    </radialGradient>
    <linearGradient id="ena-award-7-rim" x1="48" y1="36" x2="184" y2="202" gradientUnits="userSpaceOnUse">
      <stop offset="0" stop-color="#FBE39A"/>
      <stop offset=".5" stop-color="#E0A93B"/>
      <stop offset="1" stop-color="#B57E1E"/>
    </linearGradient>
    <linearGradient id="ena-award-7-dark" x1="0" y1="0" x2="0" y2="1">
      <stop offset="0" stop-color="#E0A93B"/>
      <stop offset="1" stop-color="#B57E1E"/>
    </linearGradient>
    <linearGradient id="ena-award-7-light" x1="0" y1="0" x2="1" y2="1">
      <stop offset="0" stop-color="#FBE39A"/>
      <stop offset=".55" stop-color="#E0A93B"/>
      <stop offset="1" stop-color="#B57E1E"/>
    </linearGradient>
    <radialGradient id="ena-award-7-glow" cx="50%" cy="48%" r="52%">
      <stop offset="0" stop-color="#FBE39A" stop-opacity=".46"/>
      <stop offset=".55" stop-color="#E0A93B" stop-opacity=".18"/>
      <stop offset="1" stop-color="#E0A93B" stop-opacity="0"/>
    </radialGradient>
  </defs>
  
  
  
  <circle cx="120" cy="104" r="94" fill="url(#ena-award-7-rim)"/>
  <circle cx="120" cy="104" r="84" fill="url(#ena-award-7-face)" stroke="#B57E1E" stroke-width="3"/>
  <circle cx="120" cy="104" r="66" fill="url(#ena-award-7-inner)" opacity=".9"/>
  <circle cx="120" cy="104" r="92" fill="none" stroke="#FBE39A" stroke-width="3.2" opacity=".58"/>
  <circle cx="120" cy="104" r="74" fill="none" stroke="#B57E1E" stroke-width="2" opacity=".45"/>
  <path d="M69 65 C91 40 133 37 160 56" fill="none" stroke="#FBE39A" stroke-width="5" stroke-linecap="round" opacity=".46"/>
  
  
  <g aria-hidden="true"><ellipse cx="75.33" cy="162.49" rx="5.4" ry="11" transform="rotate(42 75.33 162.49)" fill="url(#ena-award-7-light)" stroke="#B57E1E" stroke-width="1"/><ellipse cx="104.2" cy="175.34" rx="5.4" ry="11" transform="rotate(34 104.2 175.34)" fill="url(#ena-award-7-light)" stroke="#B57E1E" stroke-width="1"/><ellipse cx="135.8" cy="175.34" rx="5.4" ry="11" transform="rotate(26 135.8 175.34)" fill="url(#ena-award-7-light)" stroke="#B57E1E" stroke-width="1"/><ellipse cx="164.67" cy="162.49" rx="5.4" ry="11" transform="rotate(18 164.67 162.49)" fill="url(#ena-award-7-light)" stroke="#B57E1E" stroke-width="1"/><ellipse cx="164.67" cy="162.49" rx="5.4" ry="11" transform="rotate(-42 164.67 162.49)" fill="url(#ena-award-7-light)" stroke="#B57E1E" stroke-width="1"/><ellipse cx="135.8" cy="175.34" rx="5.4" ry="11" transform="rotate(-34 135.8 175.34)" fill="url(#ena-award-7-light)" stroke="#B57E1E" stroke-width="1"/><ellipse cx="104.2" cy="175.34" rx="5.4" ry="11" transform="rotate(-26 104.2 175.34)" fill="url(#ena-award-7-light)" stroke="#B57E1E" stroke-width="1"/><ellipse cx="75.33" cy="162.49" rx="5.4" ry="11" transform="rotate(-18 75.33 162.49)" fill="url(#ena-award-7-light)" stroke="#B57E1E" stroke-width="1"/></g>
  
  
  <g aria-label="ENA center spark and orb">
    <circle cx="120" cy="101" r="48" fill="url(#ena-award-7-inner)" stroke="#FBE39A" stroke-width="2.5" opacity=".82"/>
    <path d="M120 62 C128.49 92.51 153 95 159 101
          C128.49 109.49 126 134 120 140
          C111.51 109.49 87 107 81 101
          C111.51 92.51 114 68 120 62Z" fill="#FBE39A" stroke="#B57E1E" stroke-width="1.4"/>
    <path d="M85 88 C100 72 134 70 151 88" fill="none" stroke="#FBE39A" stroke-width="4" stroke-linecap="round" opacity=".6"/>
  </g>
  
  
  <g aria-label="Level 7">
    <path d="M82 181 C93 174 147 174 158 181 L164 205 C150 215 90 215 76 205Z" fill="url(#ena-award-7-dark)" stroke="#B57E1E" stroke-width="2.5"/>
    <path d="M89 184 C103 180 137 180 151 184" fill="none" stroke="#FBE39A" stroke-width="3" stroke-linecap="round" opacity=".7"/>
    <text x="120" y="202" text-anchor="middle" font-family="Sora, Avenir Next, Helvetica, Arial, sans-serif" font-size="20" font-weight="800" fill="#FBE39A" stroke="#B57E1E" stroke-width=".6" paint-order="stroke">7</text>
  </g>
</svg>
