<?xml version="1.0" encoding="UTF-8"?>
<svg xmlns="http://www.w3.org/2000/svg" width="240" height="240" viewBox="0 0 240 240" role="img" aria-labelledby="ena-award-9-title ena-award-9-desc">
  <title id="ena-award-9-title">ENA Prompt Master rank award</title>
  <desc id="ena-award-9-desc">Warm gold ENA medallion for level 9, Prompt Master. Transparent background.</desc>
  
  <defs>
    <radialGradient id="ena-award-9-face" cx="35%" cy="25%" r="78%">
      <stop offset="0" stop-color="#FBE39A"/>
      <stop offset="0.34" stop-color="#E0A93B"/>
      <stop offset="0.92" stop-color="#B57E1E"/>
    </radialGradient>
    <radialGradient id="ena-award-9-inner" cx="38%" cy="26%" r="82%">
      <stop offset="0" stop-color="#FBE39A" stop-opacity=".92"/>
      <stop offset=".42" stop-color="#E0A93B" stop-opacity=".9"/>
      <stop offset="1" stop-color="#B57E1E" stop-opacity=".96"/>
    </radialGradient>
    <linearGradient id="ena-award-9-rim" x1="48" y1="36" x2="184" y2="202" gradientUnits="userSpaceOnUse">
      <stop offset="0" stop-color="#FBE39A"/>
      <stop offset=".5" stop-color="#E0A93B"/>
      <stop offset="1" stop-color="#B57E1E"/>
    </linearGradient>
    <linearGradient id="ena-award-9-dark" x1="0" y1="0" x2="0" y2="1">
      <stop offset="0" stop-color="#E0A93B"/>
      <stop offset="1" stop-color="#B57E1E"/>
    </linearGradient>
    <linearGradient id="ena-award-9-light" x1="0" y1="0" x2="1" y2="1">
      <stop offset="0" stop-color="#FBE39A"/>
      <stop offset=".55" stop-color="#E0A93B"/>
      <stop offset="1" stop-color="#B57E1E"/>
    </linearGradient>
    <radialGradient id="ena-award-9-glow" cx="50%" cy="48%" r="52%">
      <stop offset="0" stop-color="#FBE39A" stop-opacity=".46"/>
      <stop offset=".55" stop-color="#E0A93B" stop-opacity=".18"/>
      <stop offset="1" stop-color="#E0A93B" stop-opacity="0"/>
    </radialGradient>
  </defs>
  
  
  
  <circle cx="120" cy="104" r="94" fill="url(#ena-award-9-rim)"/>
  <circle cx="120" cy="104" r="84" fill="url(#ena-award-9-face)" stroke="#B57E1E" stroke-width="3"/>
  <circle cx="120" cy="104" r="66" fill="url(#ena-award-9-inner)" opacity=".9"/>
  <circle cx="120" cy="104" r="92" fill="none" stroke="#FBE39A" stroke-width="3.2" opacity=".58"/>
  <circle cx="120" cy="104" r="74" fill="none" stroke="#B57E1E" stroke-width="2" opacity=".45"/>
  <path d="M69 65 C91 40 133 37 160 56" fill="none" stroke="#FBE39A" stroke-width="5" stroke-linecap="round" opacity=".46"/>
  
  
  <g aria-hidden="true"><ellipse cx="52.9" cy="136.68" rx="5.4" ry="11" transform="rotate(42 52.9 136.68)" fill="url(#ena-award-9-light)" stroke="#B57E1E" stroke-width="1"/><ellipse cx="71.15" cy="159.22" rx="5.4" ry="11" transform="rotate(34 71.15 159.22)" fill="url(#ena-award-9-light)" stroke="#B57E1E" stroke-width="1"/><ellipse cx="96.51" cy="173.28" rx="5.4" ry="11" transform="rotate(26 96.51 173.28)" fill="url(#ena-award-9-light)" stroke="#B57E1E" stroke-width="1"/><ellipse cx="125.3" cy="176.81" rx="5.4" ry="11" transform="rotate(18 125.3 176.81)" fill="url(#ena-award-9-light)" stroke="#B57E1E" stroke-width="1"/><ellipse cx="153.32" cy="169.31" rx="5.4" ry="11" transform="rotate(10 153.32 169.31)" fill="url(#ena-award-9-light)" stroke="#B57E1E" stroke-width="1"/><ellipse cx="176.48" cy="151.85" rx="5.4" ry="11" transform="rotate(2 176.48 151.85)" fill="url(#ena-award-9-light)" stroke="#B57E1E" stroke-width="1"/><ellipse cx="191.42" cy="126.99" rx="5.4" ry="11" transform="rotate(-6 191.42 126.99)" fill="url(#ena-award-9-light)" stroke="#B57E1E" stroke-width="1"/><ellipse cx="187.1" cy="136.68" rx="5.4" ry="11" transform="rotate(-42 187.1 136.68)" fill="url(#ena-award-9-light)" stroke="#B57E1E" stroke-width="1"/><ellipse cx="168.85" cy="159.22" rx="5.4" ry="11" transform="rotate(-34 168.85 159.22)" fill="url(#ena-award-9-light)" stroke="#B57E1E" stroke-width="1"/><ellipse cx="143.49" cy="173.28" rx="5.4" ry="11" transform="rotate(-26 143.49 173.28)" fill="url(#ena-award-9-light)" stroke="#B57E1E" stroke-width="1"/><ellipse cx="114.7" cy="176.81" rx="5.4" ry="11" transform="rotate(-18 114.7 176.81)" fill="url(#ena-award-9-light)" stroke="#B57E1E" stroke-width="1"/><ellipse cx="86.68" cy="169.31" rx="5.4" ry="11" transform="rotate(-10 86.68 169.31)" fill="url(#ena-award-9-light)" stroke="#B57E1E" stroke-width="1"/><ellipse cx="63.52" cy="151.85" rx="5.4" ry="11" transform="rotate(-2 63.52 151.85)" fill="url(#ena-award-9-light)" stroke="#B57E1E" stroke-width="1"/><ellipse cx="48.58" cy="126.99" rx="5.4" ry="11" transform="rotate(6 48.58 126.99)" fill="url(#ena-award-9-light)" stroke="#B57E1E" stroke-width="1"/><path d="M83 181 C98 192 142 192 157 181 L148 202 L120 192 L92 202Z" fill="url(#ena-award-9-dark)" stroke="#B57E1E" stroke-width="2"/></g>
  
  
  <g aria-label="ENA center spark and orb">
    <circle cx="120" cy="101" r="48" fill="url(#ena-award-9-inner)" stroke="#FBE39A" stroke-width="2.5" opacity=".82"/>
    <path d="M120 62 C128.49 92.51 153 95 159 101
          C128.49 109.49 126 134 120 140
          C111.51 109.49 87 107 81 101
          C111.51 92.51 114 68 120 62Z" fill="#FBE39A" stroke="#B57E1E" stroke-width="1.4"/>
    <path d="M85 88 C100 72 134 70 151 88" fill="none" stroke="#FBE39A" stroke-width="4" stroke-linecap="round" opacity=".6"/>
  </g>
  
  
  <g aria-label="Level 9">
    <path d="M82 181 C93 174 147 174 158 181 L164 205 C150 215 90 215 76 205Z" fill="url(#ena-award-9-dark)" stroke="#B57E1E" stroke-width="2.5"/>
    <path d="M89 184 C103 180 137 180 151 184" fill="none" stroke="#FBE39A" stroke-width="3" stroke-linecap="round" opacity=".7"/>
    <text x="120" y="202" text-anchor="middle" font-family="Sora, Avenir Next, Helvetica, Arial, sans-serif" font-size="20" font-weight="800" fill="#FBE39A" stroke="#B57E1E" stroke-width=".6" paint-order="stroke">9</text>
  </g>
</svg>
